<svg width="1600" height="900" viewBox="0 0 1600 900" fill="none" xmlns="http://www.w3.org/2000/svg">
  <defs>
    <linearGradient id="bg" x1="140" y1="120" x2="1420" y2="780" gradientUnits="userSpaceOnUse">
      <stop offset="0" stop-color="#071C2A"/>
      <stop offset="0.45" stop-color="#0F4E61"/>
      <stop offset="1" stop-color="#9BD9D1"/>
    </linearGradient>
    <radialGradient id="glowA" cx="0" cy="0" r="1" gradientUnits="userSpaceOnUse" gradientTransform="translate(320 220) rotate(15) scale(420 280)">
      <stop stop-color="#E7F2F4" stop-opacity="0.44"/>
      <stop offset="1" stop-color="#E7F2F4" stop-opacity="0"/>
    </radialGradient>
    <radialGradient id="glowB" cx="0" cy="0" r="1" gradientUnits="userSpaceOnUse" gradientTransform="translate(1240 220) rotate(135) scale(300 240)">
      <stop stop-color="#F2B39A" stop-opacity="0.52"/>
      <stop offset="1" stop-color="#F2B39A" stop-opacity="0"/>
    </radialGradient>
    <radialGradient id="glowC" cx="0" cy="0" r="1" gradientUnits="userSpaceOnUse" gradientTransform="translate(1220 690) rotate(180) scale(500 300)">
      <stop stop-color="#D7EEF0" stop-opacity="0.32"/>
      <stop offset="1" stop-color="#D7EEF0" stop-opacity="0"/>
    </radialGradient>
    <linearGradient id="panel" x1="960" y1="160" x2="1410" y2="720" gradientUnits="userSpaceOnUse">
      <stop stop-color="#0E3143" stop-opacity="0.95"/>
      <stop offset="1" stop-color="#164D5A" stop-opacity="0.72"/>
    </linearGradient>
    <linearGradient id="ribbon" x1="170" y1="0" x2="1130" y2="0" gradientUnits="userSpaceOnUse">
      <stop stop-color="#D7EEF0" stop-opacity="0.14"/>
      <stop offset="1" stop-color="#D7EEF0" stop-opacity="0"/>
    </linearGradient>
    <filter id="grain" x="-20%" y="-20%" width="140%" height="140%">
      <feTurbulence type="fractalNoise" baseFrequency="0.9" numOctaves="2" stitchTiles="stitch"/>
      <feColorMatrix type="saturate" values="0"/>
      <feComponentTransfer>
        <feFuncA type="table" tableValues="0 0 0.05 0"/>
      </feComponentTransfer>
    </filter>
    <filter id="soft" x="-20%" y="-20%" width="140%" height="140%">
      <feGaussianBlur stdDeviation="24"/>
    </filter>
  </defs>

  <rect width="1600" height="900" fill="url(#bg)"/>
  <rect width="1600" height="900" fill="url(#glowA)"/>
  <rect width="1600" height="900" fill="url(#glowB)"/>
  <rect width="1600" height="900" fill="url(#glowC)"/>
  <rect width="1600" height="900" filter="url(#grain)" opacity="0.45"/>

  <path d="M0 730C240 620 420 640 610 730C820 830 1020 850 1240 760C1400 694 1510 632 1600 600V900H0V730Z" fill="#0A2432" fill-opacity="0.42"/>
  <path d="M0 800C170 740 320 738 500 808C700 886 948 902 1190 830C1370 776 1505 713 1600 676V900H0V800Z" fill="#F7F1E7" fill-opacity="0.08"/>

  <path d="M150 138H1110" stroke="url(#ribbon)" stroke-width="2"/>
  <circle cx="1168" cy="150" r="6" fill="#EAF3F2" fill-opacity="0.72"/>
  <circle cx="1198" cy="176" r="3.5" fill="#F2B39A" fill-opacity="0.84"/>
  <circle cx="1140" cy="188" r="2.5" fill="#EAF3F2" fill-opacity="0.62"/>

  <g opacity="0.92">
    <rect x="960" y="152" width="470" height="596" rx="38" fill="url(#panel)" stroke="#D6ECEB" stroke-opacity="0.18"/>
    <rect x="992" y="184" width="406" height="532" rx="28" fill="#0C2735" fill-opacity="0.28" stroke="#D6ECEB" stroke-opacity="0.08"/>

    <text x="1115" y="408" fill="#F2F7F7" fill-opacity="0.15" font-family="'Avenir Next', 'Segoe UI', sans-serif" font-size="252" font-weight="800" letter-spacing="-8">60</text>

    <g filter="url(#soft)" opacity="0.72">
      <circle cx="1188" cy="334" r="64" fill="#9BD9D1"/>
      <circle cx="1268" cy="496" r="72" fill="#F2B39A"/>
    </g>

    <path d="M1096 286C1172 226 1260 234 1321 304C1370 360 1372 444 1320 506C1262 576 1174 586 1096 524" stroke="#E9F5F3" stroke-opacity="0.92" stroke-width="10" stroke-linecap="round"/>
    <path d="M1295 284C1218 345 1209 466 1296 527" stroke="#9BD9D1" stroke-opacity="0.94" stroke-width="10" stroke-linecap="round"/>
    <path d="M1088 374H1304" stroke="#D8EEED" stroke-opacity="0.74" stroke-width="8" stroke-linecap="round"/>
    <path d="M1074 366L1118 374L1074 382" stroke="#F2B39A" stroke-opacity="0.9" stroke-width="8" stroke-linecap="round" stroke-linejoin="round"/>
    <path d="M1318 366L1274 374L1318 382" stroke="#F2B39A" stroke-opacity="0.9" stroke-width="8" stroke-linecap="round" stroke-linejoin="round"/>

    <text x="1092" y="645" fill="#EAF3F2" font-family="'Avenir Next', 'Segoe UI', sans-serif" font-size="28" font-weight="700" letter-spacing="5">PISCES SEASON</text>
  </g>

  <text x="150" y="182" fill="#EAF3F2" fill-opacity="0.82" font-family="'Avenir Next', 'Segoe UI', sans-serif" font-size="24" font-weight="700" letter-spacing="6">MARCH 13 2026</text>
  <text x="150" y="326" fill="#FFF8EF" font-family="'Avenir Next', 'Segoe UI', sans-serif" font-size="94" font-weight="800" letter-spacing="-3">A Pisces Birthday</text>
  <text x="150" y="420" fill="#FFF8EF" font-family="'Avenir Next', 'Segoe UI', sans-serif" font-size="94" font-weight="800" letter-spacing="-3">Chorus at Sixty</text>
  <text x="156" y="500" fill="#D9EBEC" fill-opacity="0.84" font-family="'Avenir Next', 'Segoe UI', sans-serif" font-size="34" font-weight="500">Family voices, gratitude, curiosity, and the long afterglow of being remembered well.</text>

  <g opacity="0.94">
    <rect x="150" y="580" width="198" height="54" rx="27" fill="#EAF3F2" fill-opacity="0.12" stroke="#EAF3F2" stroke-opacity="0.18"/>
    <text x="195" y="616" fill="#FFF8EF" font-family="'Avenir Next', 'Segoe UI', sans-serif" font-size="24" font-weight="700">family</text>

    <rect x="366" y="580" width="208" height="54" rx="27" fill="#EAF3F2" fill-opacity="0.12" stroke="#EAF3F2" stroke-opacity="0.18"/>
    <text x="412" y="616" fill="#FFF8EF" font-family="'Avenir Next', 'Segoe UI', sans-serif" font-size="24" font-weight="700">gratitude</text>

    <rect x="592" y="580" width="206" height="54" rx="27" fill="#EAF3F2" fill-opacity="0.12" stroke="#EAF3F2" stroke-opacity="0.18"/>
    <text x="634" y="616" fill="#FFF8EF" font-family="'Avenir Next', 'Segoe UI', sans-serif" font-size="24" font-weight="700">mentorship</text>
  </g>

  <text x="150" y="770" fill="#EAF3F2" fill-opacity="0.7" font-family="'Avenir Next', 'Segoe UI', sans-serif" font-size="22" font-weight="600" letter-spacing="3">A CONTEMPORARY PISCES HERO FOR A 60TH BIRTHDAY NOTE</text>
</svg>
